{
  "asset": {
    "version": "2.0",
    "generator": "THREE.GLTFExporter"
  },
  "scenes": [
    {
      "name": "Scene",
      "nodes": [
        0,
        4
      ]
    }
  ],
  "scene": 0,
  "nodes": [
    {
      "name": "scene(1).gltf"
    },
    {
      "matrix": [
        0.5,
        0,
        0,
        0,
        0,
        0.5,
        0,
        0,
        0,
        0,
        0.5,
        0,
        0.9324841287897843,
        0.8895860763158918,
        -0.926244696224227,
        1
      ],
      "name": "Plane.001_Plane.002",
      "mesh": 0
    },
    {
      "matrix": [
        0.4914232482116341,
        0.09193929287881437,
        -0.007096304818020951,
        0,
        -0.09019304377551356,
        0.4872434722306492,
        0.06677584610567591,
        0,
        0.019193904543759976,
        -0.0643503317284706,
        0.4954701089216188,
        0,
        -1.2031742791247402,
        0.7185915706048562,
        0.44954499524172475,
        1
      ],
      "name": "Plane.002_Plane.001",
      "mesh": 1
    },
    {
      "matrix": [
        0.5,
        0,
        0,
        0,
        0,
        0.5,
        0,
        0,
        0,
        0,
        0.5,
        0,
        0.7485770223808683,
        0.8930798972877882,
        0.04364237349461941,
        1
      ],
      "name": "Plane.001_Plane.002",
      "mesh": 0
    },
    {
      "name": "Egg bacon.obj",
      "children": [
        1,
        2,
        3
      ]
    }
  ],
  "bufferViews": [
    {
      "buffer": 0,
      "byteOffset": 0,
      "byteLength": 359424,
      "target": 34962,
      "byteStride": 12
    },
    {
      "buffer": 0,
      "byteOffset": 359424,
      "byteLength": 359424,
      "target": 34962,
      "byteStride": 12
    },
    {
      "buffer": 0,
      "byteOffset": 718848,
      "byteLength": 359424,
      "target": 34962,
      "byteStride": 12
    },
    {
      "buffer": 0,
      "byteOffset": 1078272,
      "byteLength": 359424,
      "target": 34962,
      "byteStride": 12
    }
  ],
  "buffers": [
    {
      "byteLength": 1437696,
      "uri": "data:application/octet-stream;base64,"
    }
  ],
  "accessors": [
    {
      "bufferView": 0,
      "componentType": 5126,
      "count": 29952,
      "max": [
        -0.015096999704837799,
        0.20962700247764587,
        2.0194220542907715
      ],
      "min": [
        -2.1601929664611816,
        0.06293600052595139,
        -0.6398239731788635
      ],
      "type": "VEC3"
    },
    {
      "bufferView": 1,
      "componentType": 5126,
      "count": 29952,
      "max": [
        0.8217999935150146,
        1,
        1
      ],
      "min": [
        -0.8217999935150146,
        -1,
        -0.8213000297546387
      ],
      "type": "VEC3"
    },
    {
      "bufferView": 2,
      "componentType": 5126,
      "count": 29952,
      "max": [
        2.2405149936676025,
        0.35337498784065247,
        0.609067976474762
      ],
      "min": [
        0.09227100014686584,
        0.061827998608350754,
        -2.0374999046325684
      ],
      "type": "VEC3"
    },
    {
      "bufferView": 3,
      "componentType": 5126,
      "count": 29952,
      "max": [
        0.8025000095367432,
        0.9775999784469604,
        1
      ],
      "min": [
        -0.8025000095367432,
        -0.9775999784469604,
        -0.8159000277519226
      ],
      "type": "VEC3"
    }
  ],
  "materials": [
    {
      "pbrMetallicRoughness": {
        "metallicFactor": 0.5,
        "roughnessFactor": 0.5
      },
      "name": "Fat"
    },
    {
      "pbrMetallicRoughness": {
        "metallicFactor": 0.5,
        "roughnessFactor": 0.5
      },
      "name": "Meat"
    }
  ],
  "meshes": [
    {
      "primitives": [
        {
          "mode": 4,
          "attributes": {
            "POSITION": 0,
            "NORMAL": 1
          },
          "material": 0
        },
        {
          "mode": 4,
          "attributes": {
            "POSITION": 0,
            "NORMAL": 1
          },
          "material": 1
        }
      ]
    },
    {
      "primitives": [
        {
          "mode": 4,
          "attributes": {
            "POSITION": 2,
            "NORMAL": 3
          },
          "material": 0
        },
        {
          "mode": 4,
          "attributes": {
            "POSITION": 2,
            "NORMAL": 3
          },
          "material": 1
        }
      ]
    }
  ]
}