{
  "asset": {
    "version": "2.0",
    "generator": "THREE.GLTFExporter"
  },
  "scenes": [
    {
      "name": "Scene",
      "nodes": [
        2
      ]
    }
  ],
  "scene": 0,
  "nodes": [
    {
      "name": "Sphere001",
      "extras": {
        "name": "Sphere.001"
      },
      "mesh": 0
    },
    {
      "matrix": [
        1,
        0,
        0,
        0,
        0,
        1,
        0,
        0,
        0,
        0,
        1,
        0,
        -0.6038960847880244,
        0.04073466928241896,
        0.25185456645457666,
        1
      ],
      "name": "sammyobj",
      "extras": {
        "name": "sammy.obj"
      },
      "children": [
        0
      ]
    },
    {
      "name": "scene(1).gltf",
      "children": [
        1
      ]
    }
  ],
  "bufferViews": [
    {
      "buffer": 0,
      "byteOffset": 0,
      "byteLength": 32112,
      "target": 34962,
      "byteStride": 12
    },
    {
      "buffer": 0,
      "byteOffset": 32112,
      "byteLength": 32112,
      "target": 34962,
      "byteStride": 12
    }
  ],
  "buffers": [
    {
      "byteLength": 64224,
      "uri": "data:application/octet-stream;base64,"
    }
  ],
  "accessors": [
    {
      "bufferView": 0,
      "componentType": 5126,
      "count": 2676,
      "max": [
        1.5538140535354614,
        0.45155099034309387,
        0.6591269969940186
      ],
      "min": [
        -0.4190880060195923,
        0.0030320000369101763,
        -1.3137749433517456
      ],
      "type": "VEC3"
    },
    {
      "bufferView": 1,
      "componentType": 5126,
      "count": 2676,
      "max": [
        0.9916999936103821,
        1,
        0.9916999936103821
      ],
      "min": [
        -0.9916999936103821,
        -1,
        -0.9916999936103821
      ],
      "type": "VEC3"
    }
  ],
  "materials": [
    {
      "pbrMetallicRoughness": {
        "metallicFactor": 0.5,
        "roughnessFactor": 0.5
      },
      "name": "Burger_bun.001"
    }
  ],
  "meshes": [
    {
      "primitives": [
        {
          "mode": 4,
          "attributes": {
            "POSITION": 0,
            "NORMAL": 1
          },
          "material": 0
        }
      ]
    }
  ]
}