{
  "asset": {
    "version": "2.0",
    "generator": "THREE.GLTFExporter"
  },
  "scenes": [
    {
      "name": "Scene",
      "nodes": [
        0
      ]
    }
  ],
  "scene": 0,
  "nodes": [
    {
      "matrix": [
        0.3,
        0,
        0,
        0,
        0,
        0.3,
        0,
        0,
        0,
        0,
        0.3,
        0,
        -1.6854096969134997,
        0,
        1.7731226525536723,
        1
      ],
      "name": "Mesh polySurface3",
      "mesh": 0
    }
  ],
  "bufferViews": [
    {
      "buffer": 0,
      "byteOffset": 0,
      "byteLength": 25488,
      "target": 34962,
      "byteStride": 12
    },
    {
      "buffer": 0,
      "byteOffset": 25488,
      "byteLength": 25488,
      "target": 34962,
      "byteStride": 12
    },
    {
      "buffer": 0,
      "byteOffset": 50976,
      "byteLength": 16992,
      "target": 34962,
      "byteStride": 8
    }
  ],
  "buffers": [
    {
      "byteLength": 67968,
      "uri": "data:application/octet-stream;base64,"
    }
  ],
  "accessors": [
    {
      "bufferView": 0,
      "componentType": 5126,
      "count": 2124,
      "max": [
        9.622323989868164,
        1.3670459985733032,
        -2.1949870586395264
      ],
      "min": [
        1.5290600061416626,
        -0.008252999745309353,
        -9.876455307006836
      ],
      "type": "VEC3"
    },
    {
      "bufferView": 1,
      "componentType": 5126,
      "count": 2124,
      "max": [
        0.9999009966850281,
        0.9999939799308777,
        0.9947550296783447
      ],
      "min": [
        -0.9990659952163696,
        -0.9999439716339111,
        -0.9944679737091064
      ],
      "type": "VEC3"
    },
    {
      "bufferView": 2,
      "componentType": 5126,
      "count": 2124,
      "max": [
        0.9338480234146118,
        0.9994869828224182
      ],
      "min": [
        -0.00043399998685345054,
        0.17256200313568115
      ],
      "type": "VEC2"
    }
  ],
  "materials": [
    {
      "pbrMetallicRoughness": {
        "metallicFactor": 0.5,
        "roughnessFactor": 0.5
      },
      "name": "Bottom_Texture_1SG1"
    }
  ],
  "meshes": [
    {
      "primitives": [
        {
          "mode": 4,
          "attributes": {
            "POSITION": 0,
            "NORMAL": 1,
            "TEXCOORD_0": 2
          },
          "material": 0
        }
      ]
    }
  ]
}