{
  "asset": {
    "version": "2.0",
    "generator": "THREE.GLTFExporter"
  },
  "scenes": [
    {
      "name": "Scene",
      "nodes": [
        0,
        3
      ]
    }
  ],
  "scene": 0,
  "nodes": [
    {
      "name": "scene(1).gltf"
    },
    {
      "matrix": [
        0.4,
        0,
        0,
        0,
        0,
        0.4,
        0,
        0,
        0,
        0,
        0.4,
        0,
        0.3089860903236902,
        0.799,
        -0.6605467887216208,
        1
      ],
      "name": "Cylinder.001_Cylinder.000",
      "mesh": 0
    },
    {
      "matrix": [
        0.4,
        0,
        0,
        0,
        0,
        0.4,
        0,
        0,
        0,
        0,
        0.4,
        0,
        -0.1381272168385047,
        0.7992759997984317,
        0.846771188692816,
        1
      ],
      "name": "Cylinder_Cylinder.002",
      "mesh": 1
    },
    {
      "name": "Egg bacon.obj",
      "children": [
        1,
        2
      ]
    }
  ],
  "bufferViews": [
    {
      "buffer": 0,
      "byteOffset": 0,
      "byteLength": 27144,
      "target": 34962,
      "byteStride": 12
    },
    {
      "buffer": 0,
      "byteOffset": 27144,
      "byteLength": 27144,
      "target": 34962,
      "byteStride": 12
    },
    {
      "buffer": 0,
      "byteOffset": 54288,
      "byteLength": 27144,
      "target": 34962,
      "byteStride": 12
    },
    {
      "buffer": 0,
      "byteOffset": 81432,
      "byteLength": 27144,
      "target": 34962,
      "byteStride": 12
    }
  ],
  "buffers": [
    {
      "byteLength": 108576,
      "uri": "data:application/octet-stream;base64,"
    }
  ],
  "accessors": [
    {
      "bufferView": 0,
      "componentType": 5126,
      "count": 2262,
      "max": [
        1.6176270246505737,
        0.5709009766578674,
        1.7478790283203125
      ],
      "min": [
        -0.3067770004272461,
        0.041696999222040176,
        -0.17670899629592896
      ],
      "type": "VEC3"
    },
    {
      "bufferView": 1,
      "componentType": 5126,
      "count": 2262,
      "max": [
        0.9993000030517578,
        1,
        0.9993000030517578
      ],
      "min": [
        -0.9993000030517578,
        -1,
        -0.9993000030517578
      ],
      "type": "VEC3"
    },
    {
      "bufferView": 2,
      "componentType": 5126,
      "count": 2262,
      "max": [
        0.5580700039863586,
        0.5879539847373962,
        0.1051739975810051
      ],
      "min": [
        -1.4421329498291016,
        0.038986001163721085,
        -1.894826054573059
      ],
      "type": "VEC3"
    },
    {
      "bufferView": 3,
      "componentType": 5126,
      "count": 2262,
      "max": [
        1,
        1,
        1
      ],
      "min": [
        -1,
        -1,
        -1
      ],
      "type": "VEC3"
    }
  ],
  "materials": [
    {
      "pbrMetallicRoughness": {
        "metallicFactor": 0.5,
        "roughnessFactor": 0.5
      },
      "name": "White"
    },
    {
      "pbrMetallicRoughness": {
        "metallicFactor": 0.5,
        "roughnessFactor": 0.5
      },
      "name": "Yoke"
    }
  ],
  "meshes": [
    {
      "primitives": [
        {
          "mode": 4,
          "attributes": {
            "POSITION": 0,
            "NORMAL": 1
          },
          "material": 0
        },
        {
          "mode": 4,
          "attributes": {
            "POSITION": 0,
            "NORMAL": 1
          },
          "material": 1
        }
      ]
    },
    {
      "primitives": [
        {
          "mode": 4,
          "attributes": {
            "POSITION": 2,
            "NORMAL": 3
          },
          "material": 0
        },
        {
          "mode": 4,
          "attributes": {
            "POSITION": 2,
            "NORMAL": 3
          },
          "material": 1
        }
      ]
    }
  ]
}