{
  "asset": {
    "version": "2.0",
    "generator": "THREE.GLTFExporter"
  },
  "scenes": [
    {
      "name": "Scene",
      "nodes": [
        2
      ]
    }
  ],
  "scene": 0,
  "nodes": [
    {
      "matrix": [
        1,
        0,
        0,
        0,
        0,
        1,
        0,
        0,
        0,
        0,
        1,
        0,
        0,
        -1.6127951036037342,
        0,
        1
      ],
      "name": "Icosphere_Icosphere001",
      "extras": {
        "name": "Icosphere_Icosphere.001"
      },
      "mesh": 0
    },
    {
      "matrix": [
        1,
        0,
        0,
        0,
        0,
        1,
        0,
        0,
        0,
        0,
        1,
        0,
        -0.6038960847880244,
        0.04073466928241896,
        0.25185456645457666,
        1
      ],
      "name": "sammyobj",
      "extras": {
        "name": "sammy.obj"
      },
      "children": [
        0
      ]
    },
    {
      "name": "scene(1).gltf",
      "children": [
        1
      ]
    }
  ],
  "bufferViews": [
    {
      "buffer": 0,
      "byteOffset": 0,
      "byteLength": 6408,
      "target": 34962,
      "byteStride": 12
    },
    {
      "buffer": 0,
      "byteOffset": 6408,
      "byteLength": 6408,
      "target": 34962,
      "byteStride": 12
    }
  ],
  "buffers": [
    {
      "byteLength": 12816,
      "uri": "data:application/octet-stream;base64,"
    }
  ],
  "accessors": [
    {
      "bufferView": 0,
      "componentType": 5126,
      "count": 534,
      "max": [
        0.9480040073394775,
        0.8111129999160767,
        0.7636560201644897
      ],
      "min": [
        0.20739400386810303,
        0.2776710093021393,
        0.05608300119638443
      ],
      "type": "VEC3"
    },
    {
      "bufferView": 1,
      "componentType": 5126,
      "count": 534,
      "max": [
        0.9616000056266785,
        0.9998999834060669,
        0.9607999920845032
      ],
      "min": [
        -0.8737000226974487,
        -0.9950000047683716,
        -0.9965000152587891
      ],
      "type": "VEC3"
    }
  ],
  "materials": [
    {
      "pbrMetallicRoughness": {
        "metallicFactor": 0.5,
        "roughnessFactor": 0.5
      },
      "name": "Mayo.001"
    }
  ],
  "meshes": [
    {
      "primitives": [
        {
          "mode": 4,
          "attributes": {
            "POSITION": 0,
            "NORMAL": 1
          },
          "material": 0
        }
      ]
    }
  ]
}