{
  "asset": {
    "version": "2.0",
    "generator": "THREE.GLTFExporter"
  },
  "scenes": [
    {
      "name": "Scene",
      "nodes": [
        6
      ]
    }
  ],
  "scene": 0,
  "nodes": [
    {
      "matrix": [
        4.4408920985006264e-17,
        0,
        -0.2,
        0,
        0,
        0.2,
        0,
        0,
        0.2,
        0,
        4.4408920985006264e-17,
        0,
        0.15171134537433395,
        -0.08925005541465902,
        1.6871040335248715,
        1
      ],
      "name": "Cube006_Cube007_2",
      "extras": {
        "name": "Cube.006_Cube.007"
      },
      "mesh": 0
    },
    {
      "matrix": [
        0.2,
        0,
        0,
        0,
        0,
        0.2,
        0,
        0,
        0,
        0,
        0.2,
        0,
        -1.5400158408877767,
        -0.11191466319298282,
        1.3593903742841158,
        1
      ],
      "name": "Cube005_Cube006",
      "extras": {
        "name": "Cube.005_Cube.006"
      },
      "mesh": 1
    },
    {
      "matrix": [
        0.2,
        0,
        0,
        0,
        0,
        0.2,
        0,
        0,
        0,
        0,
        0.2,
        0,
        -0.46186468376321027,
        0.45618047280004226,
        2.441459502051575,
        1
      ],
      "name": "Cube002_Cube003",
      "extras": {
        "name": "Cube.002_Cube.003"
      },
      "mesh": 2
    },
    {
      "matrix": [
        0.2,
        0,
        0,
        0,
        0,
        0.2,
        0,
        0,
        0,
        0,
        0.2,
        0,
        -0.7388867207373203,
        0.4339442750609874,
        3.652390113237604,
        1
      ],
      "name": "Cube001_Cube002",
      "extras": {
        "name": "Cube.001_Cube.002"
      },
      "mesh": 3
    },
    {
      "matrix": [
        0.12499999999999992,
        0,
        0.21650635094610962,
        0,
        0,
        0.25,
        0,
        0,
        -0.21650635094610962,
        0,
        0.12499999999999992,
        0,
        -2.2927893529356353,
        -0.22062477262467106,
        -1.8949344427538803,
        1
      ],
      "name": "Cube006_Cube007",
      "extras": {
        "name": "Cube.006_Cube.007"
      },
      "mesh": 0
    },
    {
      "matrix": [
        0.18355092513679624,
        0,
        0.07942957812695611,
        0,
        0,
        0.2,
        0,
        0,
        -0.07942957812695611,
        0,
        0.18355092513679624,
        0,
        -2.0882818944245263,
        -0.041406527675549754,
        -0.13393163398216723,
        1
      ],
      "name": "Cube006_Cube007_1",
      "extras": {
        "name": "Cube.006_Cube.007"
      },
      "mesh": 0
    },
    {
      "matrix": [
        1.2,
        0,
        0,
        0,
        0,
        1.2,
        0,
        0,
        0,
        0,
        1.2,
        0,
        0,
        0,
        0,
        1
      ],
      "name": "sausages.gltf",
      "children": [
        0,
        1,
        2,
        3,
        4,
        5
      ]
    }
  ],
  "bufferViews": [
    {
      "buffer": 0,
      "byteOffset": 0,
      "byteLength": 313344,
      "target": 34962,
      "byteStride": 12
    },
    {
      "buffer": 0,
      "byteOffset": 313344,
      "byteLength": 313344,
      "target": 34962,
      "byteStride": 12
    },
    {
      "buffer": 0,
      "byteOffset": 626688,
      "byteLength": 313344,
      "target": 34962,
      "byteStride": 12
    },
    {
      "buffer": 0,
      "byteOffset": 940032,
      "byteLength": 313344,
      "target": 34962,
      "byteStride": 12
    },
    {
      "buffer": 0,
      "byteOffset": 1253376,
      "byteLength": 313344,
      "target": 34962,
      "byteStride": 12
    },
    {
      "buffer": 0,
      "byteOffset": 1566720,
      "byteLength": 313344,
      "target": 34962,
      "byteStride": 12
    },
    {
      "buffer": 0,
      "byteOffset": 1880064,
      "byteLength": 313344,
      "target": 34962,
      "byteStride": 12
    },
    {
      "buffer": 0,
      "byteOffset": 2193408,
      "byteLength": 313344,
      "target": 34962,
      "byteStride": 12
    }
  ],
  "buffers": [
    {
      "byteLength": 2506752,
      "uri": "data:application/octet-stream;base64,"
    }
  ],
  "accessors": [
    {
      "bufferView": 0,
      "componentType": 5126,
      "count": 26112,
      "max": [
        11.591988563537598,
        3.7177178859710693,
        -0.9315170049667358
      ],
      "min": [
        8.321399688720703,
        2.631042957305908,
        -3.348253011703491
      ],
      "type": "VEC3"
    },
    {
      "bufferView": 1,
      "componentType": 5126,
      "count": 26112,
      "max": [
        0.9940000176429749,
        0.9991999864578247,
        0.9994000196456909
      ],
      "min": [
        -0.9998999834060669,
        -0.9991000294685364,
        -0.9970999956130981
      ],
      "type": "VEC3"
    },
    {
      "bufferView": 2,
      "componentType": 5126,
      "count": 26112,
      "max": [
        8.464176177978516,
        3.9235620498657227,
        -2.9966399669647217
      ],
      "min": [
        5.193587779998779,
        2.669532060623169,
        -5.383114814758301
      ],
      "type": "VEC3"
    },
    {
      "bufferView": 3,
      "componentType": 5126,
      "count": 26112,
      "max": [
        0.9940000176429749,
        0.9994000196456909,
        0.9994999766349792
      ],
      "min": [
        -0.9998999834060669,
        -0.9997000098228455,
        -0.9998000264167786
      ],
      "type": "VEC3"
    },
    {
      "bufferView": 4,
      "componentType": 5126,
      "count": 26112,
      "max": [
        5.142752170562744,
        1.0752949714660645,
        -11.75057601928711
      ],
      "min": [
        2.958184003829956,
        0.010617000050842762,
        -15.169139862060547
      ],
      "type": "VEC3"
    },
    {
      "bufferView": 5,
      "componentType": 5126,
      "count": 26112,
      "max": [
        0.9973999857902527,
        0.9991000294685364,
        0.9732000231742859
      ],
      "min": [
        -0.9990000128746033,
        -0.9991000294685364,
        -0.9976000189781189
      ],
      "type": "VEC3"
    },
    {
      "bufferView": 6,
      "componentType": 5126,
      "count": 26112,
      "max": [
        6.789236068725586,
        1.0752949714660645,
        -15.119022369384766
      ],
      "min": [
        4.604668140411377,
        0.010617000050842762,
        -18.537586212158203
      ],
      "type": "VEC3"
    },
    {
      "bufferView": 7,
      "componentType": 5126,
      "count": 26112,
      "max": [
        0.9973999857902527,
        0.9991000294685364,
        0.9732000231742859
      ],
      "min": [
        -0.9990000128746033,
        -0.9991000294685364,
        -0.9976000189781189
      ],
      "type": "VEC3"
    }
  ],
  "materials": [
    {
      "pbrMetallicRoughness": {
        "metallicFactor": 0.5,
        "roughnessFactor": 0.5
      },
      "name": "Sausages"
    }
  ],
  "meshes": [
    {
      "primitives": [
        {
          "mode": 4,
          "attributes": {
            "POSITION": 0,
            "NORMAL": 1
          },
          "material": 0
        }
      ]
    },
    {
      "primitives": [
        {
          "mode": 4,
          "attributes": {
            "POSITION": 2,
            "NORMAL": 3
          },
          "material": 0
        }
      ]
    },
    {
      "primitives": [
        {
          "mode": 4,
          "attributes": {
            "POSITION": 4,
            "NORMAL": 5
          },
          "material": 0
        }
      ]
    },
    {
      "primitives": [
        {
          "mode": 4,
          "attributes": {
            "POSITION": 6,
            "NORMAL": 7
          },
          "material": 0
        }
      ]
    }
  ]
}