{
  "asset": {
    "version": "2.0",
    "generator": "THREE.GLTFExporter"
  },
  "scenes": [
    {
      "name": "Scene",
      "nodes": [
        0
      ]
    }
  ],
  "scene": 0,
  "nodes": [
    {
      "matrix": [
        0.3,
        0,
        0,
        0,
        0,
        -0.3,
        -3.6739403974420595e-17,
        0,
        0,
        3.6739403974420595e-17,
        -0.3,
        0,
        -1.6554497341277083,
        1.4621620725018887,
        1.66252410548729,
        1
      ],
      "name": "Mesh polySurface4",
      "mesh": 0
    }
  ],
  "bufferViews": [
    {
      "buffer": 0,
      "byteOffset": 0,
      "byteLength": 25056,
      "target": 34962,
      "byteStride": 12
    },
    {
      "buffer": 0,
      "byteOffset": 25056,
      "byteLength": 25056,
      "target": 34962,
      "byteStride": 12
    },
    {
      "buffer": 0,
      "byteOffset": 50112,
      "byteLength": 16704,
      "target": 34962,
      "byteStride": 8
    }
  ],
  "buffers": [
    {
      "byteLength": 66816,
      "uri": "data:application/octet-stream;base64,"
    }
  ],
  "accessors": [
    {
      "bufferView": 0,
      "componentType": 5126,
      "count": 2088,
      "max": [
        9.76616096496582,
        1.6397420167922974,
        9.5989990234375
      ],
      "min": [
        1.6728960275650024,
        -0.027735000476241112,
        1.8236709833145142
      ],
      "type": "VEC3"
    },
    {
      "bufferView": 1,
      "componentType": 5126,
      "count": 2088,
      "max": [
        0.9997379779815674,
        0.9999579787254333,
        0.9927780032157898
      ],
      "min": [
        -0.9999769926071167,
        -0.9999610185623169,
        -0.999085009098053
      ],
      "type": "VEC3"
    },
    {
      "bufferView": 2,
      "componentType": 5126,
      "count": 2088,
      "max": [
        1.000646948814392,
        0.9976410269737244
      ],
      "min": [
        0.15899699926376343,
        0.1726440042257309
      ],
      "type": "VEC2"
    }
  ],
  "materials": [
    {
      "pbrMetallicRoughness": {
        "metallicFactor": 0.5,
        "roughnessFactor": 0.5
      },
      "name": "Top_Texture_1SG"
    }
  ],
  "meshes": [
    {
      "primitives": [
        {
          "mode": 4,
          "attributes": {
            "POSITION": 0,
            "NORMAL": 1,
            "TEXCOORD_0": 2
          },
          "material": 0
        }
      ]
    }
  ]
}