{
  "asset": {
    "version": "2.0",
    "generator": "THREE.GLTFExporter"
  },
  "scenes": [
    {
      "name": "Scene",
      "nodes": [
        4
      ]
    }
  ],
  "scene": 0,
  "nodes": [
    {
      "name": "mesh_9",
      "mesh": 0
    },
    {
      "name": "mesh_9_1",
      "mesh": 1
    },
    {
      "name": "Sphere_Sphere002",
      "extras": {
        "name": "Sphere_Sphere.002"
      },
      "children": [
        0,
        1
      ]
    },
    {
      "matrix": [
        1,
        0,
        0,
        0,
        0,
        1,
        0,
        0,
        0,
        0,
        1,
        0,
        -0.6038960847880244,
        -2.3776319148327816,
        0.25185456645457666,
        1
      ],
      "name": "sammyobj",
      "extras": {
        "name": "sammy.obj"
      },
      "children": [
        2
      ]
    },
    {
      "name": "scene(1).gltf",
      "children": [
        3
      ]
    }
  ],
  "bufferViews": [
    {
      "buffer": 0,
      "byteOffset": 0,
      "byteLength": 621936,
      "target": 34962,
      "byteStride": 12
    },
    {
      "buffer": 0,
      "byteOffset": 621936,
      "byteLength": 621936,
      "target": 34962,
      "byteStride": 12
    }
  ],
  "buffers": [
    {
      "byteLength": 1243872,
      "uri": "data:application/octet-stream;base64,"
    }
  ],
  "accessors": [
    {
      "bufferView": 0,
      "componentType": 5126,
      "count": 51828,
      "max": [
        1.5655900239944458,
        1.6913650035858154,
        0.6709020137786865
      ],
      "min": [
        -0.43086299300193787,
        0.9900749921798706,
        -1.3255510330200195
      ],
      "type": "VEC3"
    },
    {
      "bufferView": 1,
      "componentType": 5126,
      "count": 51828,
      "max": [
        1,
        1,
        0.9998999834060669
      ],
      "min": [
        -1,
        -1,
        -0.9998999834060669
      ],
      "type": "VEC3"
    }
  ],
  "materials": [
    {
      "pbrMetallicRoughness": {
        "metallicFactor": 0.5,
        "roughnessFactor": 0.5
      },
      "name": "Burger_bun.001"
    },
    {
      "pbrMetallicRoughness": {
        "metallicFactor": 0.5,
        "roughnessFactor": 0.5
      },
      "name": "Seed.001"
    }
  ],
  "meshes": [
    {
      "primitives": [
        {
          "mode": 4,
          "attributes": {
            "POSITION": 0,
            "NORMAL": 1
          },
          "material": 0
        }
      ]
    },
    {
      "primitives": [
        {
          "mode": 4,
          "attributes": {
            "POSITION": 0,
            "NORMAL": 1
          },
          "material": 1
        }
      ]
    }
  ]
}